<svg width="25" height="25" viewBox="0 0 25 25" fill="none" xmlns="http://www.w3.org/2000/svg">
<g clip-path="url(#clip0)">
<path d="M17.7558 12.806C17.7127 12.6587 17.602 12.5385 17.4549 12.4847C17.4252 12.4738 17.1845 12.3887 16.8107 12.334C18.4078 10.6346 17.8805 8.64921 17.7558 8.26147C17.7127 8.11415 17.602 7.99389 17.4549 7.94008C17.3863 7.91498 16.191 7.4935 14.8291 7.96747C14.906 7.652 14.9509 7.30517 14.9509 6.9246C14.9509 4.48969 13.107 3.41948 12.737 3.22949C12.6024 3.15576 12.439 3.14902 12.297 3.21503C12.2054 3.25756 10.0543 4.28701 10.0543 6.9246C10.0543 7.30595 10.0995 7.65351 10.1767 7.96948C8.8124 7.49233 7.61382 7.91494 7.54516 7.94008C7.39805 7.99389 7.28735 8.11415 7.24424 8.26147C7.11958 8.64921 6.59228 10.6346 8.18936 12.334C7.81553 12.3887 7.57485 12.4738 7.54516 12.4847C7.39805 12.5385 7.2873 12.6588 7.24419 12.806C7.11694 13.2019 6.56977 15.2626 8.29155 16.9844C9.28794 17.9808 10.3938 18.2185 11.2223 18.2185C11.5291 18.2185 11.7972 18.1858 12.0083 18.1471V21.342C12.0083 21.6117 12.2269 21.8303 12.4965 21.8303C12.7662 21.8303 12.9848 21.6117 12.9848 21.342V18.1458C13.1969 18.1851 13.4676 18.2184 13.7777 18.2184C14.6062 18.2184 15.7122 17.9807 16.7085 16.9844C18.4302 15.2625 17.8831 13.2018 17.7558 12.806ZM12.0083 16.6249C11.9974 16.8466 11.9663 17.0329 11.9366 17.1668C11.4147 17.2828 10.1088 17.4205 8.98213 16.2938C7.87241 15.1842 7.98872 13.9 8.11157 13.3396C8.43975 13.2683 9.08013 13.1888 9.78911 13.4189C9.83579 13.4364 9.88233 13.4529 9.92862 13.4683C10.3041 13.6106 10.6939 13.8431 11.0634 14.2125C11.7675 14.9165 11.9777 15.6905 12.0083 16.2992V16.6249ZM12.0083 12.0805C11.9974 12.3021 11.9663 12.4884 11.9366 12.6223C11.6132 12.6942 10.9889 12.774 10.2927 12.5567C10.2222 12.5295 10.152 12.5048 10.0823 12.4824C9.71817 12.3385 9.34107 12.1082 8.98208 11.7493C7.87241 10.6396 7.98872 9.35546 8.11157 8.79516C8.63301 8.68178 9.94253 8.54711 11.0634 9.66801C11.0706 9.67514 11.077 9.68232 11.084 9.6894C11.1268 9.73744 11.1698 9.78339 11.2127 9.82753C11.7971 10.4872 11.98 11.1916 12.0083 11.7547V12.0805ZM12.5034 9.63056C12.3504 9.53242 12.1299 9.37065 11.9059 9.13681C11.8831 9.11176 11.86 9.08671 11.8362 9.06176C11.4283 8.60859 11.0309 7.91342 11.0309 6.9246C11.0309 5.33295 12.0494 4.50712 12.5002 4.21962C12.9829 4.52851 13.9743 5.35434 13.9743 6.9246C13.9743 7.85771 13.6242 8.52724 13.2437 8.97978C13.1646 9.05898 13.0906 9.13896 13.0208 9.21933C12.8256 9.40912 12.6386 9.54443 12.5034 9.63056ZM12.9878 11.9222C12.9872 11.349 13.1355 10.5904 13.7426 9.87797C13.8145 9.80649 13.8868 9.72958 13.9585 9.64692C15.079 8.54482 16.3696 8.67944 16.8882 8.79418C17.0111 9.354 17.1282 10.639 16.0179 11.7493C15.6596 12.1077 15.2832 12.3377 14.9197 12.4817C14.8488 12.5044 14.7775 12.5296 14.7057 12.5573C14.0097 12.7742 13.3857 12.6941 13.0636 12.6224C13.0275 12.4597 12.9892 12.2206 12.9878 11.9347C12.9878 11.9305 12.9878 11.9264 12.9878 11.9222ZM16.0179 16.2938C14.891 17.4207 13.5851 17.2827 13.0644 17.1672C12.9509 16.6477 12.8136 15.3354 13.9366 14.2125C14.2959 13.8532 14.6732 13.6229 15.0377 13.479C15.1072 13.4567 15.1772 13.4321 15.2476 13.4049C15.9422 13.1881 16.5651 13.2672 16.8882 13.3387C17.0111 13.8985 17.1282 15.1835 16.0179 16.2938Z" fill="#739F3D"/>
<path d="M15.1053 0.272022C14.2541 0.0915527 13.3776 0 12.5 0C9.16113 0 6.02212 1.3002 3.66118 3.66118C1.30024 6.02212 0 9.16113 0 12.5C0 15.2821 0.936035 17.9979 2.64141 20.1846C2.44956 20.4814 2.34629 20.8271 2.34629 21.1889C2.34629 21.6845 2.53931 22.1504 2.88975 22.5009C3.24019 22.8514 3.70615 23.0444 4.20176 23.0444C4.69736 23.0444 5.16333 22.8514 5.51377 22.5009C5.86426 22.1504 6.05723 21.6845 6.05723 21.1889C6.05723 20.6933 5.86421 20.2274 5.51377 19.8769C5.16333 19.5264 4.69736 19.3334 4.20176 19.3334C3.90801 19.3334 3.62485 19.4017 3.36982 19.5299C1.82432 17.5237 0.976562 15.042 0.976562 12.5C0.976562 6.14595 6.14595 0.976563 12.5 0.976563C13.3097 0.976563 14.118 1.06094 14.9027 1.22734C15.1667 1.28325 15.4257 1.11475 15.4816 0.850977C15.5376 0.587158 15.3691 0.327979 15.1053 0.272022ZM3.58027 20.5674C3.75161 20.396 3.97666 20.3104 4.20176 20.3104C4.42686 20.3104 4.6519 20.396 4.82324 20.5674C4.98926 20.7334 5.08066 20.9541 5.08066 21.1889C5.08066 21.4236 4.98926 21.6443 4.82324 21.8104C4.48057 22.1531 3.92295 22.153 3.58027 21.8104C3.41426 21.6444 3.32285 21.4236 3.32285 21.1889C3.32285 20.9541 3.41426 20.7334 3.58027 20.5674Z" fill="#222222"/>
<path d="M22.3586 4.81539C22.5504 4.51862 22.6537 4.17291 22.6537 3.8111C22.6537 3.31549 22.4607 2.84952 22.1103 2.49908C21.7598 2.1486 21.2939 1.95563 20.7982 1.95563C20.3026 1.95563 19.8367 2.14865 19.4862 2.49908C19.1358 2.84952 18.9428 3.31549 18.9428 3.8111C18.9428 4.3067 19.1358 4.77267 19.4862 5.12311C19.8367 5.4736 20.3026 5.66657 20.7982 5.66657C21.092 5.66657 21.3751 5.59826 21.6302 5.47003C23.1757 7.47633 24.0234 9.95797 24.0234 12.5C24.0234 18.8541 18.8541 24.0235 12.5 24.0235C11.8165 24.0235 11.1316 23.9632 10.4645 23.8443C10.1991 23.7971 9.94536 23.9738 9.8981 24.2394C9.85078 24.5049 10.0276 24.7584 10.2931 24.8057C11.0167 24.9346 11.7592 25 12.5 25C15.8389 25 18.9779 23.6998 21.3389 21.3389C23.6999 18.978 25 15.8389 25 12.5C25 9.71788 24.064 7.00211 22.3586 4.81539ZM21.4198 4.43258C21.2538 4.5986 21.0331 4.69 20.7983 4.69C20.5635 4.69 20.3428 4.59865 20.1768 4.43258C19.8341 4.08991 19.8341 3.53234 20.1768 3.18961C20.3428 3.0236 20.5635 2.93219 20.7983 2.93219C21.0331 2.93219 21.2538 3.0236 21.4198 3.18961C21.5858 3.35558 21.6772 3.57633 21.6772 3.8111C21.6772 4.04586 21.5858 4.26657 21.4198 4.43258Z" fill="#222222"/>
<path d="M8.20967 23.1983L8.02529 23.6505L8.2083 23.1978C7.95816 23.0968 7.67368 23.2175 7.57261 23.4675C7.47154 23.7175 7.59229 24.0021 7.84229 24.1032L7.85737 24.1092C7.91494 24.1312 7.97422 24.1416 8.03252 24.1416C8.2292 24.1416 8.41509 24.0226 8.4895 23.8284C8.58599 23.5765 8.46152 23.2948 8.20967 23.1983Z" fill="#222222"/>
<path d="M17.1789 0.90542L17.1702 0.901953C16.9199 0.801758 16.6357 0.923584 16.5355 1.17397C16.4353 1.42437 16.5571 1.70845 16.8075 1.80864L16.8131 1.81089C16.873 1.83511 16.9349 1.84653 16.9958 1.84653C17.189 1.84653 17.3719 1.73115 17.4487 1.54106C17.5497 1.29102 17.4289 1.00645 17.1789 0.90542Z" fill="#222222"/>
</g>
<defs>
<clipPath id="clip0">
<rect width="25" height="25" fill="white"/>
</clipPath>
</defs>
</svg>
